{"title":"Nightstalker 2009 720p BRRip H264","uid":5826336,"size":1755225908,"categoryP":"video","categoryS":"hd___movies","magnet":"?xt=urn:btih:62215085f40d0c591525c1cb564eb5a2f538d614&amp;dn=Nightstalker+2009+720p+BRRip+H264&amp;tr=udp%3A%2F%2Ftracker.openbittorrent.com%3A80&amp;tr=udp%3A%2F%2Fopen.demonii.com%3A1337&amp;tr=udp%3A%2F%2Ftracker.coppersurfer.tk%3A6969&amp;tr=udp%3A%2F%2Fexodus.desync.com%3A6969","seeders":0,"leechers":0,"uploader":"hiest","files":-1,"time":1284296933,"description":"Nightstalker 2009 720p BRRip H264.mp4\n\nFile Size\nFormat : MPEG-4\nFormat profile : Base Media\nCodec ID : isom\nFile size : 1.63 GiB\nDuration : 1h 21mn\nOverall bit rate : 2 874 Kbps\n\nVideo\nID : 1\nFormat : AVC\nFormat/Info : Advanced Video Codec\nFormat profile : &lt;a class=&quot;__cf_email__&quot; href=&quot;/cdn-cgi/l/email-protection&quot; data-cfemail=&quot;5d15343a351d1169736c&quot;&gt;[email&amp;#160;protected]&lt;/a&gt;&lt;script data-cfhash='f9e31' type=&quot;text/javascript&quot;&gt;\n/* &lt;![CDATA[ */!function(){try{var t=&quot;currentScript&quot;in document?document.currentScript:function(){for(var t=document.getElementsByTagName(&quot;script&quot;),e=t.length;e--;)if(t[e].getAttribute(&quot;data-cfhash&quot;))return t[e]}();if(t&amp;&amp;t.previousSibling){var e,r,n,i,c=t.previousSibling,a=c.getAttribute(&quot;data-cfemail&quot;);if(a){for(e=&quot;&quot;,r=parseInt(a.substr(0,2),16),n=2;a.length-n;n+=2)i=parseInt(a.substr(n,2),16)^r,e+=String.fromCharCode(i);e=document.createTextNode(e),c.parentNode.replaceChild(e,c)}t.parentNode.removeChild(t);}}catch(u){}}()/* ]]&gt; */&lt;/script&gt;\nFormat settings, CABAC : Yes\nFormat settings, ReFrames : 3 frames\nCodec ID : avc1\nCodec ID/Info : Advanced Video Coding\nDuration : 1h 21mn\nBit rate mode : Variable\nBit rate : 2 749 Kbps\nMaximum bit rate : 10.3 Mbps\nWidth : 1 280 pixels\nHeight : 712 pixels\nDisplay aspect ratio : 16:9\nFrame rate mode : Constant\nFrame rate : 29.970 fps\nResolution : 24 bits\nColorimetry : 4:2:0\nScan type : Progressive\nBits/(Pixel*Frame) : 0.101\nStream size : 1.56 GiB (95%)\n\nAudio \nID : 2\nFormat : AAC\nFormat/Info : Advanced Audio Codec\nFormat version : Version 4\nFormat profile : LC\nFormat settings, SBR : No\nCodec ID : 40\nDuration : 1h 21mn\nBit rate mode : Variable\nBit rate : 128 Kbps\nMaximum bit rate : 133 Kbps\nChannel(s) : 2 channels\nChannel positions : L R\nSampling rate : 48.0 KHz\nResolution : 16 bits\nStream size : 74.6 MiB (4%)\n\nEnglish SRT : -----\n\nLanguage : English\n\n\n\n &lt;a href=&quot;\nhttp://www.imdb.com/title/tt1345503/&quot; rel=&quot;nofollow&quot; target=&quot;_NEW&quot;&gt;\nhttp://www.imdb.com/title/tt1345503/&lt;/a&gt;\n\n\n\nRelease Date: 8 September 2009 (USA) \n\nGenre: Horror | Thriller \n\nPlot: A chilling story based on the real-life exploits of the man who terrorized California during the 1980s.\n\nCast: \nAdolph Cortez \nElissa Dowling ... Heather\nJamie Bernadette ... Caroline\nJeff Dylan Graham ... Jim\nCassandra Church \nMichael Frost ... Detective 2\nJason Harrold ... Lead Detective\nSamm Hill ... Detective\n\n\n\n\n\n\n\n\n================================== &lt;a href=&quot;\nhttp://thepiratebay.se/user/hiest&quot; rel=&quot;nofollow&quot; target=&quot;_NEW&quot;&gt;\nhttp://thepiratebay.se/user/hiest&lt;/a&gt;\n==================================\n\n\n\n\n\n\n\n\nScreenshots:\n &lt;a href=&quot;\nhttp://postimg.com/image/22000/21337.jpg&quot; rel=&quot;nofollow&quot; target=&quot;_NEW&quot;&gt;\nhttp://postimg.com/image/22000/21337.jpg&lt;/a&gt;\n &lt;a href=&quot;\nhttp://postimg.com/image/22000/21338.jpg&quot; rel=&quot;nofollow&quot; target=&quot;_NEW&quot;&gt;\nhttp://postimg.com/image/22000/21338.jpg&lt;/a&gt;","torrent":{"xt":"urn:btih:62215085f40d0c591525c1cb564eb5a2f538d614","amp;dn":"Nightstalker+2009+720p+BRRip+H264","amp;tr":["udp%3A%2F%2Ftracker.openbittorrent.com%3A80","udp%3A%2F%2Fopen.demonii.com%3A1337","udp%3A%2F%2Ftracker.coppersurfer.tk%3A6969","udp%3A%2F%2Fexodus.desync.com%3A6969"],"infoHash":"62215085f40d0c591525c1cb564eb5a2f538d614","infoHashBuffer":{"type":"Buffer","data":[98,33,80,133,244,13,12,89,21,37,193,203,86,78,181,162,245,56,214,20]},"announce":[],"urlList":[]}}